<svg width="24" height="23" viewBox="0 0 24 23" fill="none" xmlns="http://www.w3.org/2000/svg">
<g filter="url(#filter0_d_37_415)">
<path d="M11.9999 6.74805L11.2829 6.01105C9.5999 4.28105 6.51389 4.87805 5.39989 7.05305C4.87689 8.07605 4.75889 9.55305 5.71389 11.438C6.63389 13.253 8.5479 15.427 11.9999 17.795C15.4519 15.427 17.3649 13.253 18.2859 11.438C19.2409 9.55205 19.1239 8.07605 18.5999 7.05305C17.4859 4.87805 14.3999 4.28005 12.7169 6.01005L11.9999 6.74805ZM11.9999 19C-3.33311 8.86805 7.27889 0.960048 11.8239 5.14305C11.8839 5.19805 11.9429 5.25505 11.9999 5.31405C12.0563 5.2551 12.115 5.19839 12.1759 5.14405C16.7199 0.958049 27.3329 8.86705 11.9999 19Z" fill="white"/>
</g>
<defs>
<filter id="filter0_d_37_415" x="0" y="0" width="23.9995" height="23" filterUnits="userSpaceOnUse" color-interpolation-filters="sRGB">
<feFlood flood-opacity="0" result="BackgroundImageFix"/>
<feColorMatrix in="SourceAlpha" type="matrix" values="0 0 0 0 0 0 0 0 0 0 0 0 0 0 0 0 0 0 127 0" result="hardAlpha"/>
<feOffset/>
<feGaussianBlur stdDeviation="2"/>
<feComposite in2="hardAlpha" operator="out"/>
<feColorMatrix type="matrix" values="0 0 0 0 0 0 0 0 0 0 0 0 0 0 0 0 0 0 0.5 0"/>
<feBlend mode="normal" in2="BackgroundImageFix" result="effect1_dropShadow_37_415"/>
<feBlend mode="normal" in="SourceGraphic" in2="effect1_dropShadow_37_415" result="shape"/>
</filter>
</defs>
</svg>
